<svg xmlns="http://www.w3.org/2000/svg" width="24" height="24">
   <path fill="none" d="M0 0h24v24H0z"/>
   <path d="M4 13v1h4v-3H6c-1.1 0-2 .9-2 2z" opacity=".3" style="fill:#995c3d;fill-opacity:1"/>
   <path d="M14 5v2h3v2.65L13.52 14H10V9H6c-2.21 0-4 1.79-4 4v3h2c0 1.66 1.34 3 3 3s3-1.34 3-3h4.48L19 10.35V7c0-1.1-.9-2-2-2h-3zM5 6v2h5V6H5zm1 5h2v3H4v-1c0-1.1.9-2 2-2zm13 2c-1.66 0-3 1.34-3 3s1.34 3 3 3 3-1.34 3-3-1.34-3-3-3zm0 2c.55 0 1 .45 1 1s-.45 1-1 1-1-.45-1-1 .45-1 1-1zM6 16h2c0 .55-.45 1-1 1s-1-.45-1-1z" style="fill:#995c3d;fill-opacity:1"/>
</svg>
